<svg width="51" height="50" viewBox="0 0 51 50" fill="none" xmlns="http://www.w3.org/2000/svg">
<path d="M50.5 25C50.5 38.5217 39.3165 49.5 25.5 49.5C11.6835 49.5 0.5 38.5217 0.5 25C0.5 11.4783 11.6835 0.5 25.5 0.5C39.3165 0.5 50.5 11.4783 50.5 25Z" fill="#8BA8F3" stroke="#00145E"/>
<path d="M26 13V9" stroke="#00145E" stroke-width="4"/>
<path d="M25.6543 38.3691C23.6738 38.3691 21.8926 38.1641 20.3105 37.7539C18.7285 37.3438 17.1641 36.6055 15.6172 35.5391V29.123H19.959L20.5039 32.6562C20.9492 33.0898 21.6406 33.4473 22.5781 33.7285C23.5156 34.0098 24.541 34.1504 25.6543 34.1504C26.5098 34.1504 27.2305 34.0391 27.8164 33.8164C28.4023 33.582 28.8477 33.2539 29.1523 32.832C29.457 32.3984 29.6094 31.8887 29.6094 31.3027C29.6094 30.7402 29.4688 30.2422 29.1875 29.8086C28.918 29.3633 28.4668 28.9531 27.834 28.5781C27.2012 28.2031 26.3457 27.834 25.2676 27.4707C23.1582 26.8262 21.418 26.1465 20.0469 25.4316C18.6875 24.7051 17.668 23.8496 16.9883 22.8652C16.3203 21.8691 15.9863 20.6504 15.9863 19.209C15.9863 17.8145 16.3789 16.5898 17.1641 15.5352C17.9609 14.4687 19.0508 13.6309 20.4336 13.0215C21.8164 12.4121 23.4102 12.0957 25.2148 12.0723C27.2422 12.0254 29.0352 12.2422 30.5938 12.7227C32.1523 13.2031 33.5117 13.8945 34.6719 14.7969V20.7559H30.4883L29.7852 17.293C29.3633 17.0469 28.7773 16.8301 28.0273 16.6426C27.2891 16.4551 26.4688 16.3613 25.5664 16.3613C24.793 16.3613 24.1074 16.4727 23.5098 16.6953C22.9238 16.9062 22.4551 17.2285 22.1035 17.6621C21.7637 18.084 21.5938 18.6055 21.5938 19.2266C21.5938 19.7305 21.7402 20.1816 22.0332 20.5801C22.3262 20.9785 22.8301 21.3652 23.5449 21.7402C24.2598 22.1035 25.25 22.5078 26.5156 22.9531C29.375 23.7734 31.543 24.8281 33.0195 26.1172C34.5078 27.4062 35.252 29.123 35.252 31.2676C35.252 32.7559 34.8477 34.0332 34.0391 35.0996C33.2422 36.1543 32.123 36.9629 30.6816 37.5254C29.2402 38.0879 27.5645 38.3691 25.6543 38.3691Z" fill="#00145E"/>
<path d="M26 41V37" stroke="#00145E" stroke-width="4"/>
</svg>
