<svg width="51" height="51" viewBox="0 0 51 51" fill="none" xmlns="http://www.w3.org/2000/svg">
<path d="M50.5 25.5C50.5 39.3071 39.3071 50.5 25.5 50.5C11.6929 50.5 0.5 39.3071 0.5 25.5C0.5 11.6929 11.6929 0.5 25.5 0.5C39.3071 0.5 50.5 11.6929 50.5 25.5Z" fill="#CDF183" stroke="#00145E"/>
<path d="M30.8369 15H33.8369L35.3369 15.5L36.8369 16L36.3369 16.5L35.8369 18L35.3369 19.5L32.3369 22L25.8369 24.5L26.3369 20L27.3369 17.5L30.8369 15Z" fill="#00145E"/>
<path d="M28.3369 31V31.5V32V32.5L27.8369 34.5L26.8369 37H25.3369L26.3369 34L26.8369 31V27.5L25.8369 24.5L26.3369 24L27.8369 27.5L28.3369 30.5V31Z" fill="#00145E"/>
<path d="M20.3372 21.4999L23.3372 22.0002L25.3497 23.0519L26.3369 24L25.9428 24.5176L25.2379 24.4617L23.7723 25.0549L22.3066 25.6481L20.3372 27.5002L17.8371 29.0002L12.8369 30.0002L14.3371 25.0002L17.3372 22.4999L20.3372 21.4999Z" fill="#00145E"/>
</svg>
