<svg width="51" height="51" viewBox="0 0 51 51" fill="none" xmlns="http://www.w3.org/2000/svg">
<path d="M50.5 25.5C50.5 39.3071 39.3071 50.5 25.5 50.5C11.6929 50.5 0.5 39.3071 0.5 25.5C0.5 11.6929 11.6929 0.5 25.5 0.5C39.3071 0.5 50.5 11.6929 50.5 25.5Z" fill="#8BA8F3" fill-opacity="0.25" stroke="#00145E"/>
<path d="M10.3857 32V30.4812L11.6232 30.2321V22.0759L10.3857 21.8268V20.3H19.5946V23.5625H17.642L17.5536 22.2768H14.1946V24.9607H18.0438V26.9455H14.1946V30.0232H17.7223L17.8107 28.6893H19.7473V32H10.3857ZM23.7009 32V30.4812L24.9384 30.2321V22.2848H22.9616L22.8571 23.6187H20.9205V20.3H31.5598V23.6187H29.5991L29.5027 22.2848H27.5098V30.2321L28.7473 30.4812V32H23.7009ZM32.1786 32V30.4812L33.4161 30.2321V22.0759L32.1786 21.8268V20.3H41.6446V23.6187H39.692L39.6116 22.2768H35.9875V25.258H40.0214V27.2268H35.9875V30.2321L37.217 30.4812V32H32.1786Z" fill="#00145E"/>
</svg>
