<svg width="51" height="51" viewBox="0 0 51 51" fill="none" xmlns="http://www.w3.org/2000/svg">
<path d="M50.5 25.5C50.5 39.3071 39.3071 50.5 25.5 50.5C11.6929 50.5 0.5 39.3071 0.5 25.5C0.5 11.6929 11.6929 0.5 25.5 0.5C39.3071 0.5 50.5 11.6929 50.5 25.5Z" fill="#ECF87F" fill-opacity="0.75" stroke="#00145E"/>
<path d="M11.1104 30L17.981 33.0224" stroke="#00145E" stroke-width="1.5"/>
<path d="M12.8877 25.0801L11 30.7834" stroke="#00145E" stroke-width="1.5"/>
<path d="M17.3989 26.5L17.3989 33.0058" stroke="#00145E" stroke-width="1.5"/>
<path d="M12 25.5L18.0504 27.6571" stroke="#00145E" stroke-width="1.5"/>
<path d="M22.9998 22.4999L12.5 25.5001" stroke="#00145E" stroke-width="1.5"/>
<path d="M25.6666 24.9661L17.0472 27.5593" stroke="#00145E" stroke-width="1.5"/>
<path d="M29.8916 28.6113L23.5206 30.842L17.1497 33.0726" stroke="#00145E" stroke-width="1.5"/>
<path d="M21.396 21L34 33.5" stroke="#00145E" stroke-width="1.5"/>
<path d="M23.2155 19.0165L34.5796 28.8138" stroke="#00145E" stroke-width="1.5"/>
<path d="M26.5493 17.3505L38.4999 26.4996" stroke="#00145E" stroke-width="1.5"/>
<path d="M22.771 18.0132L21.0001 23.2205" stroke="#00145E" stroke-width="1.5"/>
<path d="M27 17.5L22.5 18.5" stroke="#00145E" stroke-width="1.5"/>
<path d="M34 27.5L32.9998 32.932" stroke="#00145E" stroke-width="1.5"/>
<line x1="39.0196" y1="26.723" x2="34.1994" y2="28.0518" stroke="#00145E" stroke-width="1.5"/>
<path d="M38.1489 26L39.8497 31.2947" stroke="#00145E" stroke-width="1.5"/>
<path d="M40.5003 31.0004L33.0904 33.208" stroke="#00145E" stroke-width="1.5"/>
</svg>
