<svg width="51" height="51" viewBox="0 0 51 51" fill="none" xmlns="http://www.w3.org/2000/svg">
<path d="M50.5 25.5C50.5 39.3071 39.3071 50.5 25.5 50.5C11.6929 50.5 0.5 39.3071 0.5 25.5C0.5 11.6929 11.6929 0.5 25.5 0.5C39.3071 0.5 50.5 11.6929 50.5 25.5Z" fill="#5462BD" stroke="#00145E"/>
<path d="M35.4773 32.2878L35.3605 32.2544V31.1133C35.3501 30.6307 35.2446 30.1549 35.0501 29.7132C34.8556 29.2714 34.5758 28.8724 34.2268 28.5389C33.8778 28.2054 33.4665 27.944 33.0163 27.7697C32.5662 27.5954 32.0861 27.5116 31.6035 27.5232H31.3399C30.367 27.5026 29.4258 27.8692 28.7231 28.5425C28.0205 29.2157 27.614 30.1404 27.593 31.1133V33.7826C27.5865 34.0823 27.5208 34.3778 27.3998 34.652C27.2788 34.9263 27.1047 35.174 26.8877 35.3808C26.6707 35.5876 26.4149 35.7494 26.1351 35.8571C25.8553 35.9647 25.557 36.0161 25.2574 36.0081H25.0038C24.4014 36.0197 23.8189 35.7919 23.3842 35.3747C22.9495 34.9575 22.698 34.385 22.6849 33.7826V28.6209H22.8517C23.0021 28.6209 23.1464 28.5611 23.2528 28.4548C23.3591 28.3484 23.4189 28.2041 23.4189 28.0537V27.9069L23.5724 27.8702C27.95 27.4798 28.8775 24.2266 29.5048 20.6365L29.6583 19.7589C29.9619 18.0907 29.6583 16.2455 28.9243 15.3847C28.6739 15.0931 28.3679 14.8544 28.0241 14.6825C27.6804 14.5106 27.3058 14.409 26.9223 14.3837H25.4976L25.4475 14.3337C25.3461 14.229 25.2248 14.1456 25.0907 14.0883C24.9567 14.031 24.8126 14.001 24.6668 14C24.3835 13.9993 24.111 14.1081 23.906 14.3036C23.8074 14.3968 23.7288 14.509 23.6749 14.6335C23.621 14.7579 23.5929 14.8921 23.5924 15.0277C23.595 15.2301 23.6572 15.4273 23.7711 15.5946C23.885 15.7619 24.0457 15.892 24.233 15.9686C24.4261 16.0489 24.6377 16.0737 24.8441 16.0401C25.0504 16.0065 25.2433 15.9159 25.4008 15.7784L25.4475 15.735H26.8889C27.2465 15.7799 27.5746 15.9559 27.8098 16.2289C28.2703 16.7694 28.4772 18.2742 28.2503 19.5154L28.0901 20.4029C27.3227 24.7939 26.3618 26.1018 23.6124 26.4822L23.4222 26.5089V26.3187C23.4227 26.2505 23.4096 26.1829 23.3838 26.1197C23.358 26.0566 23.32 25.9992 23.2719 25.9508C23.2239 25.9025 23.1667 25.864 23.1038 25.8378C23.0408 25.8116 22.9733 25.7982 22.9051 25.7982H20.9699C20.8277 25.7991 20.6915 25.8559 20.591 25.9565C20.4904 26.057 20.4335 26.1932 20.4327 26.3354V26.5188H20.2525C17.2496 26.2319 16.4688 24.6704 15.7281 20.4196L15.5679 19.5287C15.3611 18.3743 15.4178 16.8361 15.8782 16.2689C16.1103 15.9887 16.4388 15.8054 16.7991 15.755H18.2606L18.3073 15.7984C18.4648 15.9359 18.6577 16.0265 18.864 16.0602C19.0704 16.0938 19.282 16.069 19.4751 15.9886C19.6629 15.9118 19.824 15.7812 19.9379 15.6132C20.0519 15.4452 20.1137 15.2473 20.1157 15.0444C20.107 14.7662 19.9889 14.5026 19.7872 14.3109C19.5854 14.1191 19.3163 14.0146 19.038 14.02C18.7435 14.0265 18.4627 14.146 18.2539 14.3537L18.2038 14.4038H16.7658C16.3822 14.4285 16.0074 14.5299 15.6636 14.7018C15.3197 14.8737 15.0138 15.1127 14.7638 15.4047C14.0731 16.2189 13.8162 18.0139 14.1365 19.7756L14.29 20.6565C14.9807 24.5903 15.8582 27.6199 20.2658 27.9002H20.4193V28.057C20.4202 28.2104 20.4818 28.3572 20.5905 28.4654C20.6993 28.5736 20.8465 28.6343 20.9999 28.6343H21.2401V33.7959C21.2505 34.2785 21.356 34.7543 21.5505 35.1961C21.7451 35.6379 22.0249 36.0369 22.3738 36.3704C22.7228 36.7039 23.1342 36.9653 23.5843 37.1396C24.0344 37.3139 24.5145 37.3976 24.9971 37.3861H25.2607C25.7466 37.4007 26.2305 37.3187 26.6844 37.1448C27.1384 36.9709 27.5532 36.7086 27.9049 36.373C28.2566 36.0375 28.5382 35.6353 28.7332 35.1901C28.9282 34.7448 29.0329 34.2653 29.041 33.7793V31.11C29.0542 30.5076 29.3057 29.935 29.7404 29.5178C30.1751 29.1006 30.7575 28.8729 31.36 28.8845H31.6135C31.9132 28.8765 32.2115 28.9278 32.4913 29.0355C32.7711 29.1432 33.0268 29.305 33.2439 29.5118C33.4609 29.7186 33.6349 29.9663 33.756 30.2405C33.877 30.5148 33.9427 30.8103 33.9491 31.11V32.2645L33.8324 32.3011C33.3043 32.4589 32.8405 32.7814 32.5086 33.2214C32.1767 33.6613 31.994 34.1958 31.9872 34.7469C32.0217 35.4404 32.3215 36.0942 32.8246 36.5729C33.3276 37.0515 33.9954 37.3184 34.6899 37.3184C35.3843 37.3184 36.0521 37.0515 36.5552 36.5729C37.0582 36.0942 37.358 35.4404 37.3925 34.7469C37.3836 34.1846 37.1919 33.6405 36.8464 33.1968C36.5008 32.7532 36.0203 32.4341 35.4773 32.2878ZM34.6598 36.3984C34.3338 36.3984 34.0152 36.3018 33.7441 36.1207C33.473 35.9396 33.2618 35.6821 33.137 35.3809C33.0123 35.0798 32.9796 34.7483 33.0432 34.4286C33.1068 34.1089 33.2638 33.8152 33.4943 33.5847C33.7248 33.3542 34.0185 33.1972 34.3383 33.1336C34.658 33.07 34.9894 33.1026 35.2906 33.2274C35.5918 33.3521 35.8492 33.5634 36.0303 33.8344C36.2114 34.1055 36.3081 34.4242 36.3081 34.7502C36.3029 35.1857 36.1276 35.6019 35.8196 35.9099C35.5116 36.2179 35.0954 36.3933 34.6598 36.3984Z" fill="#00145E"/>
</svg>
