<svg width="50" height="51" viewBox="0 0 50 51" fill="none" xmlns="http://www.w3.org/2000/svg">
<path d="M49.5 25.9651C49.5 39.516 38.5303 50.5 25 50.5C11.4697 50.5 0.5 39.516 0.5 25.9651C0.5 12.4142 11.4697 1.43018 25 1.43018C38.5303 1.43018 49.5 12.4142 49.5 25.9651Z" fill="#CDF183" fill-opacity="0.5" stroke="#00145E"/>
<path d="M21.3105 28.6895H28.7588" stroke="#00145E" stroke-width="2"/>
<path d="M27.8276 28.6895V37.9998" stroke="#00145E" stroke-width="2"/>
<line x1="15.7241" y1="37" x2="22.2414" y2="37" stroke="#00145E" stroke-width="2"/>
<path d="M12 27.7588H16.6552" stroke="#00145E" stroke-width="2"/>
<path d="M33.4136 27.7588H38.0687" stroke="#00145E" stroke-width="2"/>
<line x1="26.8965" y1="37" x2="33.4137" y2="37" stroke="#00145E" stroke-width="2"/>
<path d="M16.6553 38V26.8276" stroke="#00145E" stroke-width="2"/>
<path d="M12.9306 27.2934L25.4997 11.9312" stroke="#00145E" stroke-width="2"/>
<path d="M25.0951 12.5161L37.3831 27.4444" stroke="#00145E" stroke-width="2"/>
<path d="M33.4136 38V26.8276" stroke="#00145E" stroke-width="2"/>
<path d="M22.2412 38V28.6897" stroke="#00145E" stroke-width="2"/>
</svg>
