<svg width="51" height="51" viewBox="0 0 51 51" fill="none" xmlns="http://www.w3.org/2000/svg">
<path d="M50.5 25.5C50.5 39.3071 39.3071 50.5 25.5 50.5C11.6929 50.5 0.5 39.3071 0.5 25.5C0.5 11.6929 11.6929 0.5 25.5 0.5C39.3071 0.5 50.5 11.6929 50.5 25.5Z" fill="#ECF87F" fill-opacity="0.75" stroke="#00145E"/>
<path d="M31.8525 23.2812H30.2773V24.7865H31.8525V23.2812Z" fill="#00145E"/>
<path d="M31.9273 23.21H30.2036V24.8607H31.9273V23.21ZM31.8902 24.8252H30.2408V23.2455H31.8902V24.8252Z" fill="#E2E2E2"/>
<path d="M30.2402 24.8254H31.8897V23.2456H30.2402V24.8254ZM30.2774 23.2811H31.8414V24.7899H30.2662L30.2774 23.2811Z" fill="#E2E2E2"/>
<path d="M23.2304 21.634C24.4017 21.6019 25.5137 21.1347 26.3302 20.3316C27.1468 19.5285 27.6036 18.4529 27.6036 17.3331C27.6036 16.2134 27.1468 15.1378 26.3302 14.3347C25.5137 13.5316 24.4017 13.0644 23.2304 13.0322C22.6376 13.0337 22.0508 13.1458 21.5029 13.3624C20.5408 13.7428 19.7465 14.4304 19.2555 15.308C18.7646 16.1855 18.6074 17.1986 18.8108 18.1745C19.0141 19.1505 19.5655 20.0288 20.3707 20.6596C21.176 21.2905 22.1854 21.6349 23.2267 21.634H23.2304ZM23.2304 14.5339C23.8086 14.5339 24.3739 14.6977 24.8547 15.0047C25.3355 15.3117 25.7102 15.7481 25.9315 16.2586C26.1528 16.7691 26.2107 17.3309 26.0979 17.8729C25.985 18.4148 25.7066 18.9127 25.2977 19.3034C24.8889 19.6941 24.3679 19.9602 23.8008 20.068C23.2336 20.1758 22.6458 20.1205 22.1116 19.9091C21.5773 19.6976 21.1207 19.3395 20.7994 18.88C20.4782 18.4206 20.3067 17.8804 20.3067 17.3278C20.3097 16.5883 20.6189 15.8801 21.1667 15.3578C21.7146 14.8356 22.4566 14.5419 23.2304 14.541V14.5339Z" fill="#00145E"/>
<path d="M17.8355 19.7273C17.8313 19.5946 17.7906 19.4654 17.7173 19.3526C17.6441 19.2399 17.5409 19.1477 17.4183 19.0853C17.2957 19.023 17.1581 18.9927 17.0193 18.9976C16.8805 19.0025 16.7456 19.0423 16.6281 19.1131C15.2305 19.9367 14.0789 21.091 13.2847 22.4644L14.5923 23.327C15.2545 22.1208 16.2438 21.1068 17.4566 20.3911C17.5759 20.3228 17.674 20.2253 17.7406 20.1085C17.8072 19.9918 17.84 19.8602 17.8355 19.7273Z" fill="#00145E"/>
<path d="M14.6373 23.3948C15.2957 22.1853 16.2841 21.1684 17.4978 20.4518C17.6254 20.3781 17.7306 20.2738 17.8029 20.1492C17.8752 20.0247 17.9122 19.8842 17.9102 19.7418C17.907 19.5963 17.8633 19.4543 17.7837 19.3303C17.7041 19.2062 17.5914 19.1047 17.4571 19.036C17.3229 18.9674 17.172 18.9341 17.0198 18.9395C16.8677 18.945 16.7198 18.9891 16.5914 19.0673C15.1716 19.9019 14.0049 21.0767 13.2071 22.4753L13.1885 22.5037L14.6187 23.4445L14.6373 23.3948ZM13.2368 22.4789C14.0314 21.0843 15.1944 19.913 16.6099 19.0815C16.7331 19.0073 16.8747 18.9656 17.0202 18.9606C17.1657 18.9556 17.3099 18.9875 17.4384 19.053C17.5664 19.1195 17.6741 19.2166 17.751 19.3349C17.8279 19.4531 17.8712 19.5885 17.8767 19.7276C17.8834 19.8691 17.85 20.0098 17.78 20.1348C17.7101 20.2597 17.6062 20.3643 17.4792 20.4376C16.2568 21.1535 15.2635 22.1764 14.6076 23.3948L13.2368 22.4789Z" fill="#E2E2E2"/>
<path d="M17.4798 20.4238C17.6067 20.3505 17.7106 20.2459 17.7806 20.121C17.8505 19.996 17.8839 19.8554 17.8773 19.7138C17.8717 19.5747 17.8284 19.4393 17.7515 19.3211C17.6747 19.2028 17.5669 19.1057 17.4389 19.0393C17.3105 18.9737 17.1662 18.9418 17.0207 18.9468C16.8752 18.9518 16.7336 18.9935 16.6105 19.0677C15.1949 19.8993 14.0319 21.0706 13.2373 22.4651L14.6081 23.3668C15.2662 22.1537 16.2593 21.1359 17.4798 20.4238ZM14.5933 23.3278L13.2856 22.4651C14.0798 21.0918 15.2314 19.9375 16.629 19.1139C16.7169 19.0559 16.8161 19.0156 16.9207 18.9954C17.0253 18.9752 17.1332 18.9755 17.2376 18.9964C17.3421 19.0172 17.4411 19.0582 17.5285 19.1167C17.6159 19.1752 17.69 19.2501 17.7462 19.3368C17.8024 19.4235 17.8396 19.5202 17.8554 19.6211C17.8713 19.7219 17.8656 19.8248 17.8386 19.9235C17.8116 20.0222 17.7639 20.1146 17.6984 20.1951C17.6329 20.2756 17.5509 20.3426 17.4575 20.3919C16.2447 21.1076 15.2555 22.1216 14.5933 23.3278Z" fill="#E2E2E2"/>
<path d="M37.6663 24.8607H36.1803V24.8288C35.7048 22.3934 34.6684 20.7888 32.9149 19.7735H32.8889V19.7451L34.2671 16.4932C34.3117 16.3873 34.3305 16.273 34.322 16.1592C34.3136 16.0453 34.2781 15.9347 34.2183 15.8359C34.1586 15.737 34.076 15.6524 33.977 15.5886C33.878 15.5247 33.765 15.4832 33.6467 15.4672C33.2455 15.414 29.668 15.0305 28.6762 17.5014C28.6273 17.6248 28.6131 17.7583 28.6349 17.8886C28.6567 18.0189 28.7139 18.1415 28.8007 18.2442C28.8874 18.3468 29.0008 18.426 29.1295 18.4738C29.2582 18.5216 29.3978 18.5364 29.5343 18.5167C29.671 18.4953 29.7995 18.4402 29.907 18.3567C30.0145 18.2733 30.0973 18.1645 30.1473 18.041C30.4742 17.228 31.5106 16.976 32.3205 16.9369H32.38L32.3577 16.9902L31.1577 19.8303C31.146 19.8685 31.1386 19.9077 31.1354 19.9474C31.1176 20.0004 31.1064 20.0552 31.102 20.1107C31.1061 20.1526 31.1136 20.1942 31.1243 20.235C31.1308 20.2879 31.1419 20.3401 31.1577 20.3912C31.2097 20.474 31.2655 20.5557 31.3249 20.6361C31.3592 20.6646 31.3966 20.6896 31.4363 20.7107C31.4757 20.7437 31.518 20.7734 31.5627 20.7994C33.3718 21.5911 34.3192 23.0679 34.7241 25.7376C34.7531 25.9161 34.8474 26.0789 34.9902 26.1973C35.1331 26.3156 35.3152 26.3816 35.5042 26.3837H36.8713V29.5787H34.7575C34.561 29.5772 34.3712 29.6465 34.2259 29.7728C34.0806 29.8992 33.9905 30.0733 33.9737 30.2604C33.8601 31.0433 33.5023 31.7753 32.947 32.361C32.3917 32.9468 31.6646 33.3591 30.8605 33.5442C30.8356 33.5532 30.8119 33.5651 30.7899 33.5797C30.7277 33.5982 30.6688 33.6257 30.6154 33.6613C30.5806 33.6856 30.5482 33.7129 30.5188 33.743C30.4798 33.7793 30.4438 33.8185 30.411 33.8602C30.3836 33.9039 30.3612 33.9503 30.3442 33.9986C30.3243 34.0287 30.3081 34.0608 30.2959 34.0944L29.6123 36.6789H27.4948V36.6541L26.8558 34.8293C26.8043 34.6798 26.7048 34.5496 26.5714 34.4571C26.438 34.3647 26.2776 34.3148 26.1129 34.3145H22.814C22.6493 34.3148 22.4888 34.3647 22.3554 34.4571C22.2221 34.5496 22.1225 34.6798 22.071 34.8293L21.4395 36.6789H19.3219V36.6505L18.6495 34.098C18.6509 34.0886 18.6509 34.079 18.6495 34.0696C18.6302 34.0153 18.6053 33.963 18.5752 33.9134C18.5554 33.8754 18.5331 33.8386 18.5084 33.8033L18.4044 33.7146C18.361 33.6795 18.3151 33.6475 18.2669 33.6187C16.7264 32.907 15.4648 31.7425 14.6671 30.2959L13.2666 30.981C14.1525 32.6056 15.5334 33.935 17.2267 34.7938L17.9697 37.6338C18.0121 37.7971 18.1104 37.9422 18.2492 38.0458C18.3879 38.1494 18.5589 38.2056 18.735 38.2054H22.0338C22.1984 38.2046 22.3586 38.1545 22.4919 38.0621C22.6252 37.9698 22.7248 37.8399 22.7768 37.6907L23.4232 35.8411H25.5853V35.8659L26.2243 37.6907C26.2758 37.8402 26.3754 37.9704 26.5087 38.0628C26.6421 38.1552 26.8025 38.2051 26.9673 38.2054H30.2662C30.4422 38.2056 30.6133 38.1494 30.752 38.0458C30.8907 37.9422 30.9891 37.7971 31.0314 37.6338L31.7521 34.8719C32.6385 34.5903 33.4372 34.1014 34.0756 33.4498C34.7139 32.7982 35.1718 32.0045 35.4076 31.1408V31.1159H37.6663C37.7692 31.1159 37.8711 31.0965 37.9661 31.0587C38.0611 31.0209 38.1473 30.9656 38.2198 30.8958C38.3685 30.7549 38.4527 30.5634 38.4539 30.3633V25.6311C38.4519 25.4324 38.3682 25.2424 38.2208 25.1022C38.0734 24.962 37.8742 24.8829 37.6663 24.882V24.8607Z" fill="#00145E"/>
<path d="M12.8729 25.4932C12.715 25.4932 12.5605 25.5379 12.4292 25.6218C12.2979 25.7057 12.1955 25.8249 12.135 25.9644C12.0746 26.1038 12.0587 26.2573 12.0896 26.4053C12.1204 26.5534 12.1965 26.6894 12.3082 26.7961C12.4199 26.9029 12.5622 26.9756 12.7171 27.005C12.8721 27.0345 13.0326 27.0194 13.1786 26.9616C13.3245 26.9038 13.4493 26.806 13.537 26.6805C13.6248 26.555 13.6717 26.4074 13.6717 26.2564C13.6717 26.054 13.5875 25.8599 13.4377 25.7167C13.2879 25.5736 13.0848 25.4932 12.8729 25.4932Z" fill="#00145E"/>
<path d="M13.746 26.2558C13.7467 26.0906 13.6962 25.929 13.6007 25.7913C13.5052 25.6536 13.3691 25.5462 13.2097 25.4825C13.0502 25.4188 12.8746 25.4018 12.705 25.4336C12.5354 25.4654 12.3795 25.5445 12.257 25.661C12.1345 25.7776 12.051 25.9262 12.017 26.0882C11.9831 26.2501 12.0001 26.418 12.0661 26.5707C12.1321 26.7233 12.2439 26.8538 12.3876 26.9456C12.5312 27.0375 12.7002 27.0865 12.873 27.0865C13.1039 27.0865 13.3254 26.9991 13.489 26.8434C13.6526 26.6877 13.745 26.4764 13.746 26.2558ZM12.873 27.051C12.7075 27.051 12.5458 27.0041 12.4082 26.9161C12.2707 26.8282 12.1636 26.7033 12.1004 26.5571C12.0373 26.4109 12.0209 26.2501 12.0535 26.0951C12.086 25.94 12.166 25.7977 12.2833 25.6862C12.4006 25.5746 12.5498 25.4988 12.7122 25.4684C12.8746 25.4379 13.0428 25.4543 13.1954 25.5153C13.3481 25.5763 13.4784 25.6792 13.5698 25.811C13.6612 25.9428 13.7096 26.0977 13.7089 26.2558C13.7089 26.3605 13.6872 26.4642 13.6452 26.5609C13.6031 26.6576 13.5415 26.7454 13.4638 26.8193C13.3862 26.8932 13.294 26.9517 13.1926 26.9915C13.0912 27.0312 12.9826 27.0515 12.873 27.051Z" fill="#E2E2E2"/>
<path d="M12.873 25.457C12.7077 25.457 12.546 25.5039 12.4086 25.5916C12.2711 25.6794 12.164 25.8042 12.1007 25.9501C12.0375 26.0961 12.0209 26.2567 12.0532 26.4116C12.0854 26.5666 12.165 26.7089 12.2819 26.8206C12.3988 26.9323 12.5478 27.0084 12.7099 27.0392C12.872 27.07 13.0401 27.0542 13.1928 26.9938C13.3456 26.9333 13.4761 26.8309 13.568 26.6996C13.6598 26.5682 13.7088 26.4138 13.7088 26.2558C13.7088 26.044 13.6208 25.8408 13.464 25.691C13.3073 25.5412 13.0947 25.457 12.873 25.457ZM12.873 27.0155C12.7148 27.0155 12.5603 26.9707 12.4289 26.8866C12.2974 26.8026 12.195 26.6832 12.1347 26.5435C12.0744 26.4038 12.0588 26.2502 12.0899 26.102C12.121 25.9539 12.1974 25.8179 12.3095 25.7113C12.4216 25.6047 12.5643 25.5323 12.7194 25.5032C12.8746 25.4742 13.0353 25.4898 13.1812 25.5481C13.3271 25.6064 13.4516 25.7048 13.5389 25.8308C13.6262 25.9568 13.6724 26.1047 13.6717 26.2558C13.6717 26.3559 13.651 26.455 13.6108 26.5474C13.5706 26.6398 13.5117 26.7237 13.4375 26.7942C13.3633 26.8648 13.2752 26.9207 13.1784 26.9587C13.0815 26.9967 12.9777 27.016 12.873 27.0155Z" fill="#E2E2E2"/>
</svg>
