<svg width="51" height="58" viewBox="0 0 51 58" fill="none" xmlns="http://www.w3.org/2000/svg">
<path d="M50.5 33C50.5 46.5217 39.3165 57.5 25.5 57.5C11.6835 57.5 0.5 46.5217 0.5 33C0.5 19.4783 11.6835 8.5 25.5 8.5C39.3165 8.5 50.5 19.4783 50.5 33Z" fill="#CDF183" stroke="#00145E"/>
<path d="M15.5957 44.1704V38.7768" stroke="#00145E" stroke-width="1.79786"/>
<path d="M18.2925 44.1704V36.08" stroke="#00145E" stroke-width="1.79786"/>
<path d="M19.1919 34.2817V36.0796H17.394L19.1919 34.2817Z" fill="#00145E"/>
<path d="M19.1919 34.2817V36.0796H17.394L19.1919 34.2817Z" fill="#00145E"/>
<path d="M20.9893 44.1704V35.1812" stroke="#00145E" stroke-width="1.79786"/>
<path d="M20.0898 33.3823V35.1802H21.8877L20.0898 33.3823Z" fill="#00145E"/>
<path d="M20.0898 33.3823V35.1802H21.8877L20.0898 33.3823Z" fill="#00145E"/>
<path d="M24.585 44.1704V35.1811" stroke="#00145E" stroke-width="1.79786"/>
<path d="M25.4839 33.3823V35.1802H23.686L25.4839 33.3823Z" fill="#00145E"/>
<path d="M25.4839 33.3823V35.1802H23.686L25.4839 33.3823Z" fill="#00145E"/>
<path d="M28.1812 44.1704V31.5854" stroke="#00145E" stroke-width="1.79786"/>
<path d="M29.0801 29.7871V31.585H27.2822L29.0801 29.7871Z" fill="#00145E"/>
<path d="M29.0801 29.7871V31.585H27.2822L29.0801 29.7871Z" fill="#00145E"/>
<path d="M31.7764 44.1704V28.4391" stroke="#00145E" stroke-width="1.79786"/>
<path d="M32.6753 28.4385H31.3269" stroke="#00145E" stroke-width="0.89893"/>
<path d="M31.3269 27.9893V28.4387H30.8774L31.3269 27.9893Z" fill="#00145E"/>
<path d="M13.3481 35.6304L20.3875 28.7139" stroke="#00145E" stroke-width="1.79786"/>
<path d="M19.1911 28.8879L23.6857 32.933" stroke="#00145E" stroke-width="1.79786"/>
<path d="M36.7771 18.0424L26.7977 20.8983L34.2607 28.1127L36.7771 18.0424ZM23.7164 32.8464L31.8003 24.484L30.5077 23.2344L22.4238 31.5968L23.7164 32.8464Z" fill="#00145E"/>
<path d="M16.4946 36.9785V38.7764H14.6968L16.4946 36.9785Z" fill="#00145E"/>
<path d="M16.4946 36.9785V38.7764H14.6968L16.4946 36.9785Z" fill="#00145E"/>
</svg>
