<svg width="75" height="38" viewBox="0 0 75 38" fill="none" xmlns="http://www.w3.org/2000/svg">
<path d="M75 0C75 4.91012 73.8129 10.1623 71.9339 14.6987C70.0548 19.235 67.3007 23.3569 63.8287 26.8289C60.3567 30.3008 56.2349 33.055 51.6985 34.934C47.1622 36.813 42.3001 37.7801 37.39 37.7801C32.4799 37.7801 27.6178 36.813 23.0815 34.934C18.5451 33.055 14.4233 30.3008 10.9513 26.8289C7.47929 23.3569 4.72517 19.235 2.84614 14.6987C0.96712 10.1623 -4.29257e-07 4.91012 0 0H37.5H75Z" fill="black" fill-opacity="0.25"/>
<path d="M37.5 7V30" stroke="white" stroke-width="3"/>
<path d="M49 18.5L25.9929 18.4997" stroke="white" stroke-width="3"/>
</svg>
