<svg width="51" height="51" viewBox="0 0 51 51" fill="none" xmlns="http://www.w3.org/2000/svg">
<path d="M50.5 25.5C50.5 39.3071 39.3071 50.5 25.5 50.5C11.6929 50.5 0.5 39.3071 0.5 25.5C0.5 11.6929 11.6929 0.5 25.5 0.5C39.3071 0.5 50.5 11.6929 50.5 25.5Z" fill="#5462BD" stroke="#00145E"/>
<path fill-rule="evenodd" clip-rule="evenodd" d="M40.8016 22.8155L33.5309 19.6964L30.7705 14.9797L30.6835 14.8493C30.2713 14.3344 29.6476 14.0346 28.9881 14.0342H20.2937C19.5648 14.0319 18.8833 14.3951 18.4788 15.0014L14.7945 20.555H12.121C11.5208 20.555 11.0342 21.0416 11.0342 21.6418V31.423C11.0342 32.0232 11.5208 32.5098 12.121 32.5098H14.4467C14.9612 34.4029 16.68 35.7169 18.6418 35.7169C20.6036 35.7169 22.3223 34.4029 22.8368 32.5098H29.6619C30.1764 34.4029 31.8951 35.7169 33.857 35.7169C35.8188 35.7169 37.5375 34.4029 38.052 32.5098H40.3778C40.978 32.5098 41.4646 32.0232 41.4646 31.423V23.8154C41.4642 23.3793 41.2032 22.9856 40.8016 22.8155ZM18.6416 33.5968C17.4412 33.5968 16.468 32.6236 16.468 31.4232C16.468 30.2227 17.4412 29.2496 18.6416 29.2496C19.8421 29.2496 20.8152 30.2227 20.8152 31.4232C20.8152 32.6236 19.8421 33.5968 18.6416 33.5968ZM33.857 33.5968C32.6566 33.5968 31.6834 32.6236 31.6834 31.4232C31.6834 30.2227 32.6566 29.2496 33.857 29.2496C35.0575 29.2496 36.0306 30.2227 36.0306 31.4232C36.0306 32.6236 35.0575 33.5968 33.857 33.5968ZM39.2912 30.3364H38.0522C37.5378 28.4432 35.819 27.1293 33.8572 27.1293C31.8954 27.1293 30.1766 28.4432 29.6622 30.3364H22.8371C22.3226 28.4432 20.6038 27.1293 18.642 27.1293C16.6802 27.1293 14.9614 28.4432 14.447 30.3364H13.208V22.7288H15.3816C15.7452 22.7269 16.0837 22.5434 16.2837 22.2397L20.3157 16.208H29.0101L31.8684 21.0986C31.985 21.3018 32.1641 21.462 32.3792 21.5551L39.2912 24.5329V30.3364Z" fill="#00145E"/>
</svg>
