<svg width="51" height="51" viewBox="0 0 51 51" fill="none" xmlns="http://www.w3.org/2000/svg">
<path d="M50.5 25.5C50.5 39.3071 39.3071 50.5 25.5 50.5C11.6929 50.5 0.5 39.3071 0.5 25.5C0.5 11.6929 11.6929 0.5 25.5 0.5C39.3071 0.5 50.5 11.6929 50.5 25.5Z" fill="#5462BD" stroke="#00145E"/>
<path d="M33.8231 15.8451C30.9824 14.9279 27.9251 14.9279 25.0844 15.8451C23.6979 16.3578 22.9347 17.1297 22.9347 18.0123V21.7466C22.3958 21.7 21.9385 21.6796 21.5074 21.6796C20.0222 21.6544 18.5438 21.887 17.1381 22.3671C15.7603 22.8943 15 23.6692 15 24.5459V32.9059C15 33.7798 15.7603 34.5576 17.1381 35.0731C19.9789 35.9897 23.036 35.9897 25.8768 35.0731C27.0099 34.642 27.7206 34.0565 27.942 33.372C28.4406 33.4203 28.9412 33.4437 29.4421 33.4419C30.9274 33.4677 32.4059 33.2351 33.8115 32.7545C35.1922 32.2389 35.9525 31.467 35.9525 30.5844V18.0007C35.9729 17.1297 35.2039 16.3607 33.8231 15.8451ZM28.0177 30.2843C28.4605 30.328 28.9295 30.3484 29.4451 30.3484C30.9302 30.3752 32.4086 30.1435 33.8144 29.6639C34.1035 29.5573 34.3839 29.4288 34.6533 29.2794V30.6048C34.6533 31.1495 32.6755 32.1486 29.448 32.1486C28.9714 32.1502 28.495 32.1279 28.0207 32.0816L28.0177 30.2843ZM29.4451 29.0376C28.9685 29.0393 28.4921 29.0169 28.0177 28.9706V27.1763C28.4605 27.22 28.9295 27.2404 29.4451 27.2404C30.9303 27.2662 32.4088 27.0335 33.8144 26.5529C34.1045 26.4488 34.3851 26.3202 34.6533 26.1684V27.485C34.6504 28.0327 32.6725 29.0405 29.4451 29.0405V29.0376ZM29.4451 25.9354C28.9685 25.9379 28.4921 25.9165 28.0177 25.8713V24.5459C28.0172 24.3845 27.9906 24.2241 27.9391 24.0711C28.4576 24.1177 28.9528 24.141 29.4451 24.141C30.9303 24.1668 32.4088 23.9342 33.8144 23.4536C34.1035 23.347 34.3839 23.2185 34.6533 23.0691V24.3857C34.6504 24.913 32.8124 25.9383 29.4451 25.9383V25.9354ZM34.6504 19.7979V21.2747C34.6504 21.802 32.8124 22.8273 29.4451 22.8273C26.2147 22.8273 24.2397 21.8224 24.2397 21.2747V19.7979C24.5081 19.9473 24.7876 20.0759 25.0757 20.1824C26.4816 20.6615 27.96 20.8931 29.4451 20.8669C30.9302 20.8937 32.4086 20.662 33.8144 20.1824C34.1025 20.0757 34.3819 19.9472 34.6504 19.7979ZM29.4451 19.5678C26.2147 19.5678 24.2397 18.5599 24.2397 18.0123C24.2397 17.4647 26.2147 16.4481 29.4451 16.4481C32.6755 16.4481 34.6504 17.453 34.6504 18.0007C34.6504 18.5483 32.6725 19.5678 29.4451 19.5678ZM26.7157 31.9796V32.9293C26.7157 33.4769 24.7378 34.4818 21.5103 34.4818C18.2828 34.4818 16.305 33.4885 16.305 32.9293V31.9796C16.5734 32.1291 16.8529 32.2576 17.141 32.3642C19.9818 33.2807 23.0389 33.2807 25.8797 32.3642C26.1676 32.257 26.447 32.1285 26.7157 31.9796ZM21.5103 31.7408C18.2828 31.7408 16.305 30.7329 16.305 30.1853V29.2473C16.5734 29.3968 16.8529 29.5253 17.141 29.6319C19.9818 30.5484 23.0389 30.5484 25.8797 29.6319C26.1678 29.5253 26.4473 29.3968 26.7157 29.2473V30.194C26.7157 30.7213 24.8776 31.7408 21.5103 31.7408ZM21.5103 29.0085C18.2828 29.0085 16.305 28.0006 16.305 27.453V26.3315C16.5734 26.481 16.8529 26.6095 17.141 26.716C19.9822 27.6297 23.0384 27.6297 25.8797 26.716C26.1678 26.6095 26.4473 26.481 26.7157 26.3315V27.4617C26.7157 27.989 24.8776 29.0172 21.5103 29.0172V29.0085ZM21.5103 26.0956C18.2828 26.0956 16.305 25.0906 16.305 24.543C16.305 23.9954 18.2828 22.9788 21.5103 22.9788C22.1653 22.9743 22.8196 23.0191 23.4678 23.1128C23.486 23.1166 23.5049 23.1166 23.5231 23.1128C25.6059 23.4041 26.7273 24.1294 26.7273 24.5314C26.7157 25.0732 24.8776 26.0985 21.5103 26.0985V26.0956Z" fill="#00145E"/>
</svg>
