<svg width="51" height="50" viewBox="0 0 51 50" fill="none" xmlns="http://www.w3.org/2000/svg">
<path d="M50.5 25C50.5 38.5217 39.3165 49.5 25.5 49.5C11.6835 49.5 0.5 38.5217 0.5 25C0.5 11.4783 11.6835 0.5 25.5 0.5C39.3165 0.5 50.5 11.4783 50.5 25Z" fill="#5462BD" stroke="#00145E"/>
<path d="M26 40V36" stroke="#00145E" stroke-width="4"/>
<path d="M26 12V8" stroke="#00145E" stroke-width="4"/>
<path d="M26.2188 37.3691C23.7578 37.3691 21.5898 36.8652 19.7148 35.8574C17.8398 34.8379 16.3809 33.3848 15.3379 31.498C14.2949 29.6113 13.7734 27.3496 13.7734 24.7129V23.7109C13.7734 21.2383 14.2656 19.0527 15.25 17.1543C16.2344 15.2441 17.6348 13.75 19.4512 12.6719C21.2793 11.582 23.4473 11.0371 25.9551 11.0371C27.7129 11.0371 29.3711 11.2773 30.9297 11.7578C32.5 12.2383 33.9238 13.0176 35.2012 14.0957V20.4766H31.0703L30.5078 16.6445C30.1094 16.375 29.6875 16.1406 29.2422 15.9414C28.7969 15.7422 28.3164 15.5898 27.8008 15.4844C27.2852 15.3789 26.7285 15.3262 26.1309 15.3262C24.748 15.3262 23.5527 15.6602 22.5449 16.3281C21.5371 16.9961 20.7578 17.9512 20.207 19.1934C19.6562 20.4355 19.3809 21.9297 19.3809 23.6758V24.7129C19.3809 26.4004 19.6621 27.877 20.2246 29.1426C20.7988 30.3965 21.6074 31.3691 22.6504 32.0605C23.6934 32.752 24.9062 33.0977 26.2891 33.0977C27.0156 33.0977 27.7422 33.0215 28.4688 32.8691C29.1953 32.7051 29.875 32.4941 30.5078 32.2363L31.0879 28.6328H35.2188V34.8906C34.2109 35.5703 32.9395 36.1562 31.4043 36.6484C29.8809 37.1289 28.1523 37.3691 26.2188 37.3691Z" fill="#00145E"/>
</svg>
