<svg width="51" height="51" viewBox="0 0 51 51" fill="none" xmlns="http://www.w3.org/2000/svg">
<path d="M50.5 25.5C50.5 39.3071 39.3071 50.5 25.5 50.5C11.6929 50.5 0.5 39.3071 0.5 25.5C0.5 11.6929 11.6929 0.5 25.5 0.5C39.3071 0.5 50.5 11.6929 50.5 25.5Z" fill="#ECF87F" fill-opacity="0.75" stroke="#00145E"/>
<path d="M22.8681 28.3857L20.6858 28.1873C19.158 28.0485 18.3941 27.979 18.1515 27.4564C17.9088 26.9338 18.3487 26.3054 19.2285 25.0486L25.4362 16.1804C26.0174 15.3502 26.308 14.935 26.5586 15.0233C26.8092 15.1116 26.7755 15.6172 26.7081 16.6284L26.3174 22.4894C26.256 23.4096 26.2254 23.8697 26.4898 24.1794C26.7542 24.489 27.2134 24.5308 28.1319 24.6143L30.3142 24.8127C31.842 24.9515 32.6059 25.021 32.8485 25.5436C33.0912 26.0662 32.6513 26.6946 31.7715 27.9514L25.5638 36.8196C24.9826 37.6498 24.692 38.065 24.4414 37.9767C24.1908 37.8884 24.2245 37.3828 24.2919 36.3716L24.6826 30.5106C24.744 29.5904 24.7746 29.1303 24.5102 28.8206C24.2458 28.511 23.7866 28.4692 22.8681 28.3857Z" fill="#00145E"/>
<path d="M34.4375 15.5L32.375 18.25H35.125L33.0625 21" stroke="#00145E" stroke-opacity="0.5" stroke-linecap="round" stroke-linejoin="round"/>
<path d="M17.9375 32L15.875 34.75H18.625L16.5625 37.5" stroke="#00145E" stroke-opacity="0.6" stroke-linecap="round" stroke-linejoin="round"/>
</svg>
