<svg width="221" height="34" viewBox="0 0 221 34" fill="none" xmlns="http://www.w3.org/2000/svg">
<path d="M29.9729 27L31.2888 22.3668V18.885L33.3176 18.0626L37.1557 7.61729H45.4078L50.0958 19.8994L52.2068 23.7924V27H46.2577L44.8869 22.9151H37.4573L36.2784 27H29.9729ZM39.2667 18.1174H43.379L41.5696 12.6617H40.9939L39.2667 18.1174ZM59.7475 27.2742C58.194 27.2742 56.9238 27.1462 55.9368 26.8903C54.9498 26.6162 54.1548 26.3238 53.5517 26.013V21.3798C54.3193 21.8368 55.2057 22.2023 56.211 22.4765C57.2162 22.7506 58.1209 22.8877 58.9251 22.8877C59.2175 22.8877 59.4186 22.8511 59.5282 22.778C59.6379 22.7049 59.6927 22.5953 59.6927 22.449C59.6927 22.3028 59.5099 22.1475 59.1444 21.983C58.7971 21.8002 58.194 21.5809 57.335 21.325C56.6587 21.1057 56.0099 20.8681 55.3885 20.6122C54.7671 20.3563 54.2645 20.0182 53.8806 19.5978C53.4968 19.1775 53.3049 18.62 53.3049 17.9255C53.3049 16.8654 53.5699 16.0338 54.1 15.4307C54.6483 14.8275 55.3976 14.4072 56.348 14.1696C57.3167 13.9137 58.4133 13.7858 59.6379 13.7858C60.3324 13.7858 61.0269 13.8223 61.7215 13.8954C62.4343 13.9685 62.9186 14.0234 63.1745 14.0599L65.7241 15.4307L64.4904 19.1866L60.2136 18.1448C59.6287 18.1448 59.3363 18.2819 59.3363 18.556C59.3363 18.8668 59.7567 19.1318 60.5974 19.3511C61.4564 19.5887 62.2972 19.8446 63.1196 20.1187C63.9421 20.3929 64.6184 20.7676 65.1484 21.2428C65.6784 21.6997 65.9434 22.3394 65.9434 23.1618C65.9434 24.5509 65.3951 25.5835 64.2985 26.2598C63.2019 26.936 61.6849 27.2742 59.7475 27.2742ZM74.0443 27.2742C72.4907 27.2742 71.2205 27.1462 70.2335 26.8903C69.2466 26.6162 68.4515 26.3238 67.8484 26.013V21.3798C68.616 21.8368 69.5024 22.2023 70.5077 22.4765C71.5129 22.7506 72.4176 22.8877 73.2218 22.8877C73.5142 22.8877 73.7153 22.8511 73.8249 22.778C73.9346 22.7049 73.9894 22.5953 73.9894 22.449C73.9894 22.3028 73.8067 22.1475 73.4411 21.983C73.0939 21.8002 72.4907 21.5809 71.6317 21.325C70.9555 21.1057 70.3066 20.8681 69.6852 20.6122C69.0638 20.3563 68.5612 20.0182 68.1774 19.5978C67.7935 19.1775 67.6016 18.62 67.6016 17.9255C67.6016 16.8654 67.8667 16.0338 68.3967 15.4307C68.945 14.8275 69.6943 14.4072 70.6448 14.1696C71.6134 13.9137 72.71 13.7858 73.9346 13.7858C74.6291 13.7858 75.3237 13.8223 76.0182 13.8954C76.731 13.9685 77.2153 14.0234 77.4712 14.0599L80.0208 15.4307L78.7871 19.1866L74.5103 18.1448C73.9255 18.1448 73.633 18.2819 73.633 18.556C73.633 18.8668 74.0534 19.1318 74.8941 19.3511C75.7532 19.5887 76.5939 19.8446 77.4164 20.1187C78.2388 20.3929 78.9151 20.7676 79.4451 21.2428C79.9751 21.6997 80.2402 22.3394 80.2402 23.1618C80.2402 24.5509 79.6918 25.5835 78.5952 26.2598C77.4986 26.936 75.9816 27.2742 74.0443 27.2742ZM89.1634 27.2742C87.7561 27.2742 86.4767 27.0731 85.3253 26.671C84.1921 26.2506 83.2874 25.5561 82.6112 24.5874C81.9532 23.6005 81.6242 22.248 81.6242 20.53C81.6242 19.3237 81.8252 18.291 82.2273 17.432C82.6477 16.573 83.2052 15.8785 83.8997 15.3484C84.5942 14.8001 85.371 14.4072 86.23 14.1696C87.089 13.9137 87.9754 13.7858 88.8893 13.7858C90.0407 13.7858 91.0003 13.8589 91.7679 14.0051C92.5538 14.1513 93.1844 14.3158 93.6596 14.4986C94.1348 14.6813 94.5003 14.8458 94.7562 14.992L96.127 19.3511L95.5787 21.0509H87.6282C87.7013 21.5626 87.9663 22.0013 88.4232 22.3668C88.8802 22.7141 89.6752 22.8877 90.8084 22.8877C91.8867 22.8877 92.7823 22.7689 93.4951 22.5313C94.2079 22.2937 94.7196 22.1109 95.0303 21.983V26.205C94.6648 26.406 94.1622 26.5888 93.5225 26.7533C92.8828 26.9178 92.1791 27.0457 91.4115 27.1371C90.6622 27.2285 89.9128 27.2742 89.1634 27.2742ZM87.5459 19.2688L90.3423 18.748L90.0956 17.8707C89.8397 17.7244 89.529 17.6513 89.1634 17.6513C88.5603 17.6513 88.1308 17.8158 87.8749 18.1448C87.6373 18.4738 87.5277 18.8485 87.5459 19.2688ZM103.734 27.2742C102.126 27.2742 100.947 26.9452 100.198 26.2872C99.4482 25.6292 99.0735 24.6697 99.0735 23.4086V18.2545H96.798V14.8275L98.7993 13.4842L100.746 10.0847H105.077V14.0599H109.19V18.4464H105.077V22.6684L109.19 22.6409V26.4517C109.19 26.4517 109.025 26.4974 108.696 26.5888C108.367 26.6619 107.929 26.7533 107.38 26.8629C106.85 26.9726 106.265 27.064 105.626 27.1371C104.986 27.2285 104.356 27.2742 103.734 27.2742ZM116.049 27V12.8262L110.566 13.1004V7.58987H127.7V13.1004L122.08 12.8262V22.6135L122.382 25.3551L122.08 27H116.049ZM128.824 27V18.419L128.249 15.6774L128.824 14.0325H133.649L134.198 14.6631C134.198 14.6631 134.298 14.5899 134.499 14.4437C134.719 14.2792 135.02 14.1239 135.404 13.9777C135.788 13.8315 136.236 13.7583 136.747 13.7583C137.113 13.7583 137.479 13.7858 137.844 13.8406C138.21 13.8954 138.493 13.9685 138.694 14.0599L141.573 16.6644L139.242 20.4477L135.623 18.3916L134.801 18.6657V27H128.824ZM145.687 27.2742C144.463 27.2742 143.467 26.9909 142.699 26.4243C141.95 25.8394 141.575 24.825 141.575 23.3812C141.575 22.0469 142.014 21.0417 142.891 20.3655C143.787 19.6709 144.993 19.3237 146.51 19.3237C147.332 19.3237 147.99 19.4059 148.484 19.5704C148.977 19.7166 149.352 19.8628 149.608 20.0091L149.8 19.872C149.8 19.3054 149.699 18.885 149.498 18.6109C149.297 18.3184 148.813 18.1722 148.045 18.1722C147.369 18.1722 146.674 18.2453 145.962 18.3916C145.267 18.5195 144.609 18.6931 143.988 18.9124C143.366 19.1135 142.836 19.3328 142.398 19.5704V14.6356C142.69 14.5443 143.156 14.4346 143.796 14.3067C144.435 14.1787 145.203 14.0691 146.099 13.9777C146.994 13.868 147.954 13.8132 148.977 13.8132C150.695 13.8132 152.057 14.0234 153.062 14.4437C154.067 14.8458 154.78 15.4398 155.201 16.2257C155.639 16.9934 155.859 17.9164 155.859 18.9947V22.6409L156.407 25.4099L155.859 27.0274H150.074V25.6841L149.8 25.547C149.507 25.9674 149.005 26.3603 148.292 26.7258C147.597 27.0914 146.729 27.2742 145.687 27.2742ZM148.785 23.6827C149.06 23.6827 149.288 23.637 149.471 23.5457C149.654 23.4543 149.763 23.3994 149.8 23.3812V22.778C149.8 22.5039 149.717 22.2663 149.553 22.0652C149.389 21.8642 149.142 21.7637 148.813 21.7637C148.52 21.7637 148.246 21.8459 147.99 22.0104C147.734 22.1566 147.607 22.4216 147.607 22.8054C147.607 23.3903 147.999 23.6827 148.785 23.6827ZM164.871 27.2742C163.518 27.2742 162.285 27.064 161.17 26.6436C160.073 26.2232 159.205 25.5196 158.565 24.5326C157.925 23.5457 157.606 22.2114 157.606 20.53C157.606 19.2323 157.825 18.154 158.264 17.2949C158.702 16.4359 159.278 15.7505 159.991 15.2388C160.704 14.7087 161.48 14.3341 162.321 14.1147C163.18 13.8954 164.03 13.7858 164.871 13.7858C165.876 13.7858 166.726 13.8315 167.42 13.9228C168.115 13.9959 168.608 14.0508 168.901 14.0873L171.039 16.4999L168.572 20.0365L165.419 18.4464C165.017 18.4464 164.661 18.5926 164.35 18.885C164.039 19.1775 163.884 19.7258 163.884 20.53C163.884 21.3707 164.067 21.9281 164.432 22.2023C164.816 22.4765 165.328 22.6135 165.967 22.6135C167.101 22.6135 168.078 22.4673 168.901 22.1749C169.723 21.8642 170.336 21.6174 170.738 21.4347V26.205C170.043 26.5522 169.166 26.8172 168.106 27C167.064 27.1828 165.986 27.2742 164.871 27.2742ZM173.803 27V11.9763L173.227 9.2348L173.803 7.58987H179.889V11.9763L179.587 19.0769H180.108L181.644 14.0599H188.333V15.7048L185.29 19.872L187.319 22.6135L189.896 25.3825V27H183.48L180.931 22.4765L179.889 22.7506V27H173.803ZM198.263 27.2742C196.856 27.2742 195.576 27.0731 194.425 26.671C193.292 26.2506 192.387 25.5561 191.711 24.5874C191.053 23.6005 190.724 22.248 190.724 20.53C190.724 19.3237 190.925 18.291 191.327 17.432C191.747 16.573 192.305 15.8785 192.999 15.3484C193.694 14.8001 194.47 14.4072 195.329 14.1696C196.189 13.9137 197.075 13.7858 197.989 13.7858C199.14 13.7858 200.1 13.8589 200.867 14.0051C201.653 14.1513 202.284 14.3158 202.759 14.4986C203.234 14.6813 203.6 14.8458 203.856 14.992L205.226 19.3511L204.678 21.0509H196.728C196.801 21.5626 197.066 22.0013 197.523 22.3668C197.98 22.7141 198.775 22.8877 199.908 22.8877C200.986 22.8877 201.882 22.7689 202.595 22.5313C203.307 22.2937 203.819 22.1109 204.13 21.983V26.205C203.764 26.406 203.262 26.5888 202.622 26.7533C201.982 26.9178 201.279 27.0457 200.511 27.1371C199.762 27.2285 199.012 27.2742 198.263 27.2742ZM196.645 19.2688L199.442 18.748L199.195 17.8707C198.939 17.7244 198.628 17.6513 198.263 17.6513C197.66 17.6513 197.23 17.8158 196.974 18.1448C196.737 18.4738 196.627 18.8485 196.645 19.2688ZM207.296 27V18.419L206.72 15.6774L207.296 14.0325H212.121L212.669 14.6631C212.669 14.6631 212.77 14.5899 212.971 14.4437C213.19 14.2792 213.492 14.1239 213.875 13.9777C214.259 13.8315 214.707 13.7583 215.219 13.7583C215.584 13.7583 215.95 13.7858 216.315 13.8406C216.681 13.8954 216.964 13.9685 217.165 14.0599L220.044 16.6644L217.714 20.4477L214.095 18.3916L213.272 18.6657V27H207.296Z" fill="#18388C"/>
<line y1="-2.5" x2="19.3615" y2="-2.5" transform="matrix(0.59857 -0.80107 0.748097 0.663589 4 29.4048)" stroke="#CDF183" stroke-width="5"/>
<path d="M18.8253 21.4204L29.2397 7.44743" stroke="#CDF183" stroke-width="5"/>
<line y1="-2.5" x2="14.2113" y2="-2.5" transform="matrix(0.780783 0.624802 -0.558952 0.8292 9.50684 14)" stroke="#CDF183" stroke-width="5"/>
</svg>
