<svg width="51" height="51" viewBox="0 0 51 51" fill="none" xmlns="http://www.w3.org/2000/svg">
<path d="M50.5 25.5C50.5 39.3071 39.3071 50.5 25.5 50.5C11.6929 50.5 0.5 39.3071 0.5 25.5C0.5 11.6929 11.6929 0.5 25.5 0.5C39.3071 0.5 50.5 11.6929 50.5 25.5Z" fill="#ECF87F" fill-opacity="0.75" stroke="#00145E"/>
<path fill-rule="evenodd" clip-rule="evenodd" d="M34.8233 25C34.3 24.9988 33.7795 25.0809 33.2792 25.2438L31.1968 20.8281C31.1411 20.7174 31.0662 20.6189 30.9762 20.5375L31.9292 17.5H33.9409V15.625H27.7645V17.5H30.0674L29.1851 20.3125H20.1586L20.7057 17.6969C20.7624 17.4164 20.6952 17.1237 20.5232 16.9025C20.3511 16.6814 20.0933 16.5561 19.8233 16.5625H15.4115V18.4375H18.7292L17.4057 25H17.1762C14.4465 24.9949 12.1606 27.1959 11.8975 30.0828C11.6344 32.9697 13.4803 35.5958 16.1602 36.1474C18.8402 36.6989 21.4755 34.995 22.2459 32.2125C23.0163 29.43 21.6692 26.4813 19.1351 25.4031L19.6998 22.5906L25.9292 30.8594C26.2638 31.3035 26.7702 31.5621 27.3057 31.5625H29.6086C30.0769 34.5062 32.628 36.5484 35.4202 36.2148C38.2124 35.8812 40.273 33.2881 40.1143 30.3074C39.9557 27.3267 37.6331 24.997 34.8233 25ZM20.7057 30.625C20.7039 32.6749 19.1533 34.3435 17.2241 34.3713C15.295 34.3991 13.7023 32.7759 13.6482 30.7268C13.5941 28.6777 15.0987 26.9621 17.0262 26.875L16.2939 30.4281C16.2897 30.4937 16.2897 30.5595 16.2939 30.625C16.2939 31.1428 16.6889 31.5625 17.1762 31.5625C17.5995 31.5725 17.9698 31.2617 18.0586 30.8219L18.7733 27.2875C19.9567 27.9255 20.7033 29.215 20.7057 30.625ZM21.6586 22.1875H28.6468L26.5998 28.6938L21.6586 22.1875ZM29.5998 29.6875H28.0998L30.2086 22.9469L31.691 26.0875C30.5863 26.9577 29.8404 28.2473 29.6086 29.6875H29.5998ZM34.8233 34.375C33.3596 34.365 32.0536 33.3961 31.5405 31.9396C31.0274 30.483 31.4137 28.8412 32.5115 27.8125L34.038 31.0469C34.2234 31.4314 34.6321 31.6315 35.0277 31.5315C35.4233 31.4314 35.7032 31.057 35.7057 30.625C35.7017 30.4817 35.6686 30.3409 35.6086 30.2125L34.0821 26.9688C34.3252 26.9087 34.5738 26.8773 34.8233 26.875C36.7725 26.875 38.3527 28.5539 38.3527 30.625C38.3527 32.6961 36.7725 34.375 34.8233 34.375Z" fill="#00145E"/>
</svg>
